<svg xmlns="http://www.w3.org/2000/svg" width="18" height="18" viewBox="0 0 18 18"><defs><style>.a{fill:#3c4852;}</style></defs><path class="a" d="M12,21a9.12,9.12,0,0,0,9-9,9.12,9.12,0,0,0-9-9,9.12,9.12,0,0,0-9,9A9.12,9.12,0,0,0,12,21ZM12,4.8A7.3,7.3,0,0,1,19.2,12,7.3,7.3,0,0,1,12,19.2,7.3,7.3,0,0,1,4.8,12,7.3,7.3,0,0,1,12,4.8Z" transform="translate(-3 -3)"/><path class="a" d="M15,19.5a4.793,4.793,0,0,0,3.336-1.163l-1.273-1.274A3.009,3.009,0,0,1,15,17.7a2.7,2.7,0,0,1,0-5.4,3.015,3.015,0,0,1,2.064.636l1.273-1.273A4.793,4.793,0,0,0,15,10.5a4.5,4.5,0,0,0,0,9Z" transform="translate(-6 -6)"/></svg>