<svg xmlns="http://www.w3.org/2000/svg" width="20" height="19.643" viewBox="0 0 20 19.643"><defs><style>.a{fill:#3c4852;}</style></defs><path class="a" d="M20,10.6a8.037,8.037,0,0,1-.078,1.161H7.076A3.522,3.522,0,0,0,8.3,14.49a4.158,4.158,0,0,0,2.873,1.1,4.308,4.308,0,0,0,2.071-.519,3.873,3.873,0,0,0,1.523-1.457h4.721a8.809,8.809,0,0,1-1.9,3.136A9,9,0,0,1,7.042,18.67a10.047,10.047,0,0,1-4.4,1.294Q0,19.965,0,17.03A11.623,11.623,0,0,1,.5,13.96,16.123,16.123,0,0,1,1.719,11.4a25.439,25.439,0,0,1,5.3-6.763A14.97,14.97,0,0,0,2.254,8.593,8.746,8.746,0,0,1,5.418,3.576a8.747,8.747,0,0,1,5.6-1.959q.335,0,.5.011A12.06,12.06,0,0,1,16.351.322a5.342,5.342,0,0,1,1.294.145A3.475,3.475,0,0,1,18.7.919a2.087,2.087,0,0,1,.743.853,2.874,2.874,0,0,1,.268,1.283,8.255,8.255,0,0,1-.837,3.192A8.829,8.829,0,0,1,20,10.6Zm-.781-7.143a1.909,1.909,0,0,0-.592-1.473A2.161,2.161,0,0,0,17.1,1.438a6.759,6.759,0,0,0-2.835.781,8.885,8.885,0,0,1,2.483,1.468,9.025,9.025,0,0,1,1.9,2.182,7.28,7.28,0,0,0,.569-2.411ZM1.428,17.264a1.953,1.953,0,0,0,.541,1.479,2.081,2.081,0,0,0,1.5.519,6.354,6.354,0,0,0,2.969-.926,8.984,8.984,0,0,1-2.383-2.042,8.727,8.727,0,0,1-1.535-2.735A9.2,9.2,0,0,0,1.428,17.264ZM7.053,9.306h8.125a3.555,3.555,0,0,0-1.261-2.645,4.238,4.238,0,0,0-5.608,0A3.566,3.566,0,0,0,7.053,9.306Z" transform="translate(0 -0.322)"/></svg>