<svg xmlns="http://www.w3.org/2000/svg" width="90" height="90" viewBox="0 0 90 90"><defs><style>.a{fill:#cc9545;}.b{fill:#fff;}</style></defs><g transform="translate(-59 -271)"><circle class="a" cx="45" cy="45" r="45" transform="translate(59 271)"/><g transform="translate(78 292)"><g transform="translate(0 0)"><path class="b" d="M49.463,60.621h-.645V48.041a.762.762,0,1,0-1.523,0V60.621H31.135V39.913H46.672a.623.623,0,0,1,.623.622v3.917a.762.762,0,0,0,1.524,0V40.536a2.148,2.148,0,0,0-2.146-2.146H31.135V24.547a2.156,2.156,0,0,0-1.966-2.138V20.881a2.157,2.157,0,0,0-1.978-2.139L7.463,17.2a2.147,2.147,0,0,0-2.314,2.139v1.22a2.146,2.146,0,0,0-1.965,2.138V60.62H2.539a2.539,2.539,0,0,0,0,5.078H49.463a2.539,2.539,0,1,0,0-5.078ZM6.673,19.335a.622.622,0,0,1,.671-.621L27.072,20.26a.626.626,0,0,1,.574.621v1.408L6.673,20.645v-1.31ZM4.707,22.693a.622.622,0,0,1,.671-.621l23.659,1.854a.626.626,0,0,1,.574.621V60.621H27.483V49.714a1.259,1.259,0,0,0-1.257-1.257H19.149a1.259,1.259,0,0,0-1.257,1.257v4.942a.762.762,0,0,0,1.524,0V49.981H25.96v10.64H19.415v-2.4a.762.762,0,1,0-1.524,0v2.4H4.707ZM49.463,64.175H2.539a1.016,1.016,0,1,1,0-2.031H49.463a1.016,1.016,0,1,1,0,2.031Z" transform="translate(0 -17.188)"/><path class="b" d="M64.277,118.7h3.083a1.316,1.316,0,0,0,1.315-1.314v-2.372a1.316,1.316,0,0,0-1.315-1.314H64.277a1.316,1.316,0,0,0-1.314,1.314v2.372A1.316,1.316,0,0,0,64.277,118.7Zm.209-3.478h2.666v1.954H64.486Z" transform="translate(-56.568 -103.899)"/><path class="b" d="M139.971,118.7h3.083a1.316,1.316,0,0,0,1.314-1.314v-2.372a1.316,1.316,0,0,0-1.314-1.314h-3.083a1.316,1.316,0,0,0-1.314,1.314v2.372A1.316,1.316,0,0,0,139.971,118.7Zm.209-3.478h2.665v1.954H140.18Z" transform="translate(-124.574 -103.899)"/><path class="b" d="M215.664,118.7h3.083a1.316,1.316,0,0,0,1.314-1.314v-2.372a1.316,1.316,0,0,0-1.314-1.314h-3.083a1.316,1.316,0,0,0-1.314,1.314v2.372A1.316,1.316,0,0,0,215.664,118.7Zm.209-3.478h2.665v1.954h-2.665Z" transform="translate(-192.579 -103.899)"/><path class="b" d="M64.277,186.139h3.083a1.316,1.316,0,0,0,1.315-1.314v-2.372a1.316,1.316,0,0,0-1.315-1.314H64.277a1.316,1.316,0,0,0-1.314,1.314v2.372A1.316,1.316,0,0,0,64.277,186.139Zm.209-3.478h2.666v1.954H64.486Z" transform="translate(-56.568 -164.486)"/><path class="b" d="M139.971,186.139h3.083a1.316,1.316,0,0,0,1.314-1.314v-2.372a1.316,1.316,0,0,0-1.314-1.314h-3.083a1.316,1.316,0,0,0-1.314,1.314v2.372A1.316,1.316,0,0,0,139.971,186.139Zm.209-3.478h2.665v1.954H140.18Z" transform="translate(-124.574 -164.486)"/><path class="b" d="M215.664,186.139h3.083a1.316,1.316,0,0,0,1.314-1.314v-2.372a1.316,1.316,0,0,0-1.314-1.314h-3.083a1.316,1.316,0,0,0-1.314,1.314v2.372A1.316,1.316,0,0,0,215.664,186.139Zm.209-3.478h2.665v1.954h-2.665Z" transform="translate(-192.579 -164.486)"/><path class="b" d="M64.277,253.576h3.083a1.316,1.316,0,0,0,1.315-1.314v-2.372a1.316,1.316,0,0,0-1.315-1.314H64.277a1.316,1.316,0,0,0-1.314,1.314v2.372A1.316,1.316,0,0,0,64.277,253.576Zm.209-3.478h2.666v1.954H64.486Z" transform="translate(-56.568 -225.074)"/><path class="b" d="M71.25,325.052H64.426a1.464,1.464,0,0,0-1.463,1.463v2.076a1.464,1.464,0,0,0,1.463,1.463H71.25a1.464,1.464,0,0,0,1.463-1.463v-2.076A1.464,1.464,0,0,0,71.25,325.052Zm-.061,3.478h-6.7v-1.954h6.7Z" transform="translate(-56.568 -293.783)"/><path class="b" d="M139.971,253.576h3.083a1.316,1.316,0,0,0,1.314-1.314v-2.372a1.316,1.316,0,0,0-1.314-1.314h-3.083a1.316,1.316,0,0,0-1.314,1.314v2.372A1.316,1.316,0,0,0,139.971,253.576Zm.209-3.478h2.665v1.954H140.18Z" transform="translate(-124.574 -225.074)"/><path class="b" d="M215.664,253.576h3.083a1.316,1.316,0,0,0,1.314-1.314v-2.372a1.316,1.316,0,0,0-1.314-1.314h-3.083a1.316,1.316,0,0,0-1.314,1.314v2.372A1.316,1.316,0,0,0,215.664,253.576Zm.209-3.478h2.665v1.954h-2.665Z" transform="translate(-192.579 -225.074)"/><path class="b" d="M328.264,278.9a1.4,1.4,0,0,0-1.4-1.4h-3.111a1.4,1.4,0,0,0-1.4,1.4v2.467a1.4,1.4,0,0,0,1.4,1.4h3.111a1.4,1.4,0,0,0,1.4-1.4Zm-1.523,2.345h-2.866v-2.223h2.866Z" transform="translate(-289.611 -251.061)"/><path class="b" d="M326.863,346.717h-3.111a1.4,1.4,0,0,0-1.4,1.4v2.467a1.4,1.4,0,0,0,1.4,1.4h3.111a1.4,1.4,0,0,0,1.4-1.4v-2.467A1.4,1.4,0,0,0,326.863,346.717Zm-.122,3.746h-2.866V348.24h2.866Z" transform="translate(-289.611 -313.248)"/><path class="b" d="M398.025,278.9a1.4,1.4,0,0,0-1.4-1.4h-3.111a1.4,1.4,0,0,0-1.4,1.4v2.467a1.4,1.4,0,0,0,1.4,1.4h3.111a1.4,1.4,0,0,0,1.4-1.4Zm-1.523,2.345h-2.866v-2.223H396.5Z" transform="translate(-352.287 -251.061)"/><path class="b" d="M396.624,346.717h-3.111a1.4,1.4,0,0,0-1.4,1.4v2.467a1.4,1.4,0,0,0,1.4,1.4h3.111a1.4,1.4,0,0,0,1.4-1.4v-2.467A1.4,1.4,0,0,0,396.624,346.717Zm-.122,3.746h-2.866V348.24H396.5Z" transform="translate(-352.287 -313.248)"/></g></g></g></svg>