<svg xmlns="http://www.w3.org/2000/svg" width="36.884" height="36.884" viewBox="0 0 36.884 36.884"><defs><style>.a{fill:#3c4852;stroke:#3c4852;stroke-width:0.4px;}</style></defs><g transform="translate(0.2 0.2)"><g transform="translate(4.561 16.722)"><path class="a" d="M8.321,17.081H3.76a.76.76,0,0,1-.76-.76V11.76A.76.76,0,0,1,3.76,11h4.56a.76.76,0,0,1,.76.76v4.56A.76.76,0,0,1,8.321,17.081Zm-3.8-1.52H7.56V12.52H4.52Z" transform="translate(-3 -11)"/></g><g transform="translate(4.561 25.843)"><path class="a" d="M8.321,23.081H3.76a.76.76,0,0,1-.76-.76V17.76A.76.76,0,0,1,3.76,17h4.56a.76.76,0,0,1,.76.76v4.56A.76.76,0,0,1,8.321,23.081Zm-3.8-1.52H7.56V18.52H4.52Z" transform="translate(-3 -17)"/></g><g transform="translate(15.202 16.722)"><path class="a" d="M15.321,17.081H10.76a.76.76,0,0,1-.76-.76V11.76a.76.76,0,0,1,.76-.76h4.56a.76.76,0,0,1,.76.76v4.56A.76.76,0,0,1,15.321,17.081Zm-3.8-1.52h3.04V12.52H11.52Z" transform="translate(-10 -11)"/></g><g transform="translate(15.202 25.843)"><path class="a" d="M15.321,23.081H10.76a.76.76,0,0,1-.76-.76V17.76a.76.76,0,0,1,.76-.76h4.56a.76.76,0,0,1,.76.76v4.56A.76.76,0,0,1,15.321,23.081Zm-3.8-1.52h3.04V18.52H11.52Z" transform="translate(-10 -17)"/></g><g transform="translate(25.843 16.722)"><path class="a" d="M22.321,17.081H17.76a.76.76,0,0,1-.76-.76V11.76a.76.76,0,0,1,.76-.76h4.56a.76.76,0,0,1,.76.76v4.56A.76.76,0,0,1,22.321,17.081Zm-3.8-1.52h3.04V12.52H18.52Z" transform="translate(-17 -11)"/></g><g transform="translate(0 3.04)"><path class="a" d="M32.684,35.444H3.8a3.806,3.806,0,0,1-3.8-3.8V5.8A3.806,3.806,0,0,1,3.8,2H32.684a3.806,3.806,0,0,1,3.8,3.8V31.643A3.806,3.806,0,0,1,32.684,35.444ZM3.8,3.52A2.283,2.283,0,0,0,1.52,5.8V31.643a2.283,2.283,0,0,0,2.28,2.28H32.684a2.283,2.283,0,0,0,2.28-2.28V5.8a2.283,2.283,0,0,0-2.28-2.28Z" transform="translate(0 -2)"/></g><g transform="translate(0 12.161)"><path class="a" d="M35.724,9.52H.76A.76.76,0,1,1,.76,8H35.724a.76.76,0,1,1,0,1.52Z" transform="translate(0 -8)"/></g><g transform="translate(7.601)"><path class="a" d="M5.76,7.6A.76.76,0,0,1,5,6.841V.76a.76.76,0,0,1,1.52,0V6.841A.76.76,0,0,1,5.76,7.6Z" transform="translate(-5)"/></g><g transform="translate(27.363)"><path class="a" d="M18.76,7.6a.76.76,0,0,1-.76-.76V.76a.76.76,0,0,1,1.52,0V6.841A.76.76,0,0,1,18.76,7.6Z" transform="translate(-18)"/></g></g></svg>