<svg xmlns="http://www.w3.org/2000/svg" width="37.038" height="37.038" viewBox="0 0 37.038 37.038"><defs><style>.a{fill:#3c4852;stroke:#3c4852;stroke-width:0.4px;}</style></defs><g transform="translate(0.2 0.2)"><g transform="translate(0 0)"><path class="a" d="M16.792,38.628V22.1a.764.764,0,0,0-.763-.763C7.19,21.333,0,29.209,0,38.889A17.576,17.576,0,0,0,17.556,56.444c4.331,0,6.674-.785,9.645-3.227a.764.764,0,0,0,.118-1.058Zm.763,16.29A16.047,16.047,0,0,1,1.527,38.889c0-8.555,6.1-15.567,13.739-16.008V38.889a.759.759,0,0,0,.162.469L25.65,52.5C23.239,54.341,21.229,54.918,17.556,54.918Z" transform="translate(0 -19.806)"/><path class="a" d="M256.763,18.319h16.792a.764.764,0,0,0,.763-.763A17.576,17.576,0,0,0,256.763,0,.764.764,0,0,0,256,.763V17.556A.764.764,0,0,0,256.763,18.319Zm.763-16.774a16.05,16.05,0,0,1,15.247,15.247H257.527Z" transform="translate(-237.681)"/><path class="a" d="M293.351,277.333H278.086a.763.763,0,0,0-.594,1.243l9.923,12.284a.758.758,0,0,0,.54.282c.018,0,.035,0,.053,0a.768.768,0,0,0,.521-.2,17.624,17.624,0,0,0,5.586-12.843A.764.764,0,0,0,293.351,277.333Zm-5.277,11.913-8.39-10.387H292.57A16.106,16.106,0,0,1,288.074,289.246Z" transform="translate(-257.477 -257.487)"/></g></g></svg>