<svg xmlns="http://www.w3.org/2000/svg" width="90" height="90" viewBox="0 0 90 90"><defs><style>.a{fill:#cc4a60;}.b{fill:#fff;}</style></defs><g transform="translate(-67 -511)"><circle class="a" cx="45" cy="45" r="45" transform="translate(67 511)"/><g transform="translate(87 531)"><g transform="translate(6.206 22.756)"><path class="b" d="M10.24,19.275H4.034A1.035,1.035,0,0,1,3,18.24V12.034A1.035,1.035,0,0,1,4.034,11H10.24a1.035,1.035,0,0,1,1.034,1.034V18.24A1.035,1.035,0,0,1,10.24,19.275ZM5.069,17.206H9.206V13.069H5.069Z" transform="translate(-3 -11)"/></g><g transform="translate(6.206 35.168)"><path class="b" d="M10.24,25.275H4.034A1.035,1.035,0,0,1,3,24.24V18.034A1.035,1.035,0,0,1,4.034,17H10.24a1.035,1.035,0,0,1,1.034,1.034V24.24A1.035,1.035,0,0,1,10.24,25.275ZM5.069,23.206H9.206V19.069H5.069Z" transform="translate(-3 -17)"/></g><g transform="translate(20.687 22.756)"><path class="b" d="M17.24,19.275H11.034A1.035,1.035,0,0,1,10,18.24V12.034A1.035,1.035,0,0,1,11.034,11H17.24a1.035,1.035,0,0,1,1.034,1.034V18.24A1.035,1.035,0,0,1,17.24,19.275Zm-5.172-2.069h4.137V13.069H12.069Z" transform="translate(-10 -11)"/></g><g transform="translate(20.687 35.168)"><path class="b" d="M17.24,25.275H11.034A1.035,1.035,0,0,1,10,24.24V18.034A1.035,1.035,0,0,1,11.034,17H17.24a1.035,1.035,0,0,1,1.034,1.034V24.24A1.035,1.035,0,0,1,17.24,25.275Zm-5.172-2.069h4.137V19.069H12.069Z" transform="translate(-10 -17)"/></g><g transform="translate(35.168 22.756)"><path class="b" d="M24.24,19.275H18.034A1.035,1.035,0,0,1,17,18.24V12.034A1.035,1.035,0,0,1,18.034,11H24.24a1.035,1.035,0,0,1,1.034,1.034V18.24A1.035,1.035,0,0,1,24.24,19.275Zm-5.172-2.069h4.137V13.069H19.069Z" transform="translate(-17 -11)"/></g><g transform="translate(0 4.137)"><path class="b" d="M44.477,47.511H5.172A5.179,5.179,0,0,1,0,42.339V7.172A5.179,5.179,0,0,1,5.172,2H44.477a5.179,5.179,0,0,1,5.172,5.172V42.339A5.179,5.179,0,0,1,44.477,47.511ZM5.172,4.069a3.107,3.107,0,0,0-3.1,3.1V42.339a3.107,3.107,0,0,0,3.1,3.1H44.477a3.107,3.107,0,0,0,3.1-3.1V7.172a3.107,3.107,0,0,0-3.1-3.1Z" transform="translate(0 -2)"/></g><g transform="translate(0 16.549)"><path class="b" d="M48.614,10.069H1.034A1.034,1.034,0,1,1,1.034,8h47.58a1.034,1.034,0,1,1,0,2.069Z" transform="translate(0 -8)"/></g><g transform="translate(10.343)"><path class="b" d="M6.034,10.343A1.035,1.035,0,0,1,5,9.309V1.034a1.034,1.034,0,0,1,2.069,0V9.309A1.035,1.035,0,0,1,6.034,10.343Z" transform="translate(-5)"/></g><g transform="translate(37.236)"><path class="b" d="M19.034,10.343A1.035,1.035,0,0,1,18,9.309V1.034a1.034,1.034,0,0,1,2.069,0V9.309A1.035,1.035,0,0,1,19.034,10.343Z" transform="translate(-18)"/></g></g></g></svg>