<svg xmlns="http://www.w3.org/2000/svg" width="39.153" height="24.67" viewBox="0 0 39.153 24.67"><defs><style>.a{fill:#3c4852;}</style></defs><g transform="translate(0)"><g transform="translate(0 0)"><path class="a" d="M38.844,125.735a1.731,1.731,0,0,0-.6-.611c-.026-.015-.173-.08-.2-.091l-17.371-7.484a.738.738,0,0,0-.139-.044,2.647,2.647,0,0,0-1.915,0,.592.592,0,0,0-.14.044L1.122,125.026c-.042.017-.184.082-.223.1a1.694,1.694,0,0,0-.579.586c-.02.03-.078.135-.095.169a2.075,2.075,0,0,0-.225.93,2.257,2.257,0,0,0,.3,1.072,1.739,1.739,0,0,0,.6.619c.026.015.173.08.2.091l7.051,3.038v5.617c0,3.114,5.744,4.744,11.42,4.744S31,140.366,31,137.252v-5.619l3.263-1.406v6.8l-1.548,3.6a1.028,1.028,0,0,0,.365,1.273.769.769,0,0,0,1.095-.425l.9-2.1.9,2.1a.812.812,0,0,0,.731.524.717.717,0,0,0,.362-.1,1.026,1.026,0,0,0,.365-1.273l-1.543-3.59v-7.372a.83.83,0,0,0-.023-.127l2.161-.932c.042-.017.184-.082.224-.1a1.688,1.688,0,0,0,.582-.592l-.654-.565.747.4a2.075,2.075,0,0,0,.225-.93h0A2.249,2.249,0,0,0,38.844,125.735ZM19.576,140.1c-6.072,0-9.788-1.843-9.788-2.846s3.716-2.846,9.788-2.846,9.788,1.843,9.788,2.846S25.648,140.1,19.576,140.1Zm9.788-5.393c-4.2-2.827-15.376-2.827-19.576,0v-5.044c0-1,3.716-2.846,9.788-2.846s9.788,1.843,9.788,2.846Zm1.625-5.093c-.126-6.16-22.7-6.16-22.828,0l-6.49-2.8,17.26-7.435a1.047,1.047,0,0,0,.1-.034,1.276,1.276,0,0,1,1.078,0,.628.628,0,0,0,.1.032l17.261,7.442Z" transform="translate(0 -117.326)"/></g></g></svg>