<svg xmlns="http://www.w3.org/2000/svg" width="31.95" height="33.28" viewBox="0 0 31.95 33.28"><defs><style>.a{fill:#3c4852;}.b{fill:#cf375d;}</style></defs><g transform="translate(-3.05 -1)"><path class="a" d="M18,34.28A2.67,2.67,0,0,0,20.58,32H15.32A2.67,2.67,0,0,0,18,34.28Z"/><path class="a" d="M32.51,27.83A14.4,14.4,0,0,1,30,24.9a12.63,12.63,0,0,1-1.35-4.81V15.15a10.92,10.92,0,0,0-.16-1.79,7.44,7.44,0,0,1-2.24-.84,8.89,8.89,0,0,1,.4,2.64V20.1a14.24,14.24,0,0,0,1.65,5.85,16.17,16.17,0,0,0,2.44,3H5.13a16.17,16.17,0,0,0,2.44-3A14.24,14.24,0,0,0,9.22,20.1V15.15A8.8,8.8,0,0,1,18,6.31a8.61,8.61,0,0,1,4.76,1.44A7.49,7.49,0,0,1,22.5,6V5.37a10.58,10.58,0,0,0-3.32-1V3.11a1.335,1.335,0,1,0-2.67,0V4.42a10.81,10.81,0,0,0-9.3,10.73v4.94A12.63,12.63,0,0,1,5.86,24.9a14.4,14.4,0,0,1-2.47,2.93,1,1,0,0,0-.34.75v1.36a1,1,0,0,0,1,1h27.8a1,1,0,0,0,1-1V28.58A1,1,0,0,0,32.51,27.83Z"/><path class="b" d="M35,6a5,5,0,1,1-5-5A5,5,0,0,1,35,6Z"/></g></svg>