<svg xmlns="http://www.w3.org/2000/svg" width="18.535" height="18.535" viewBox="0 0 18.535 18.535"><defs><style>.a{fill:#ff718e;stroke:#ff718e;stroke-width:0.5px;fill-rule:evenodd;}</style></defs><g transform="translate(0.909 0.909)"><path class="a" d="M9.017,16.908a7.89,7.89,0,1,0-7.89-7.89A7.89,7.89,0,0,0,9.017,16.908Zm9.017-7.89A9.017,9.017,0,1,1,9.017,0,9.017,9.017,0,0,1,18.035,9.017Z" transform="translate(-0.659 -0.659)"/><path class="a" d="M16.272,6.75a.522.522,0,0,1,.522.522v5.444l3.393,1.939a.522.522,0,0,1-.518.907l-3.657-2.09a.522.522,0,0,1-.263-.454V7.272A.522.522,0,0,1,16.272,6.75Z" transform="translate(-8.437 -3.616)"/></g></svg>