<svg xmlns="http://www.w3.org/2000/svg" width="32" height="32" viewBox="0 0 32 32"><defs><style>.a{fill:#ff1616;}.b{fill:#fff;}</style></defs><rect class="a" width="32" height="32" rx="5"/><path class="b" d="M15.03,3h-14a.973.973,0,0,1-.7-.289.945.945,0,0,1-.3-.7A.984.984,0,0,1,.32,1.3.952.952,0,0,1,1.031,1h5A.973.973,0,0,1,6.32.3.954.954,0,0,1,7.031,0h2a.954.954,0,0,1,.711.3.973.973,0,0,1,.289.7h5a.961.961,0,0,1,.7.3.97.97,0,0,1,.3.711.944.944,0,0,1-.3.7.976.976,0,0,1-.7.289Zm0,11a2,2,0,0,1-2,2h-10a1.928,1.928,0,0,1-1.414-.586A1.925,1.925,0,0,1,1.03,14V4h14V14Zm-10-7A1.013,1.013,0,0,0,4.023,6a.944.944,0,0,0-.7.3.976.976,0,0,0-.289.7v6a.987.987,0,0,0,.992,1,.984.984,0,0,0,.711-.289.952.952,0,0,0,.3-.711V7Zm4,0A1.013,1.013,0,0,0,8.023,6a.944.944,0,0,0-.7.3.976.976,0,0,0-.289.7v6a.987.987,0,0,0,.992,1,.984.984,0,0,0,.711-.289A.952.952,0,0,0,9.03,13V7Zm4,0a1.013,1.013,0,0,0-1.008-1,.944.944,0,0,0-.7.3.976.976,0,0,0-.289.7v6a.987.987,0,0,0,.992,1,.984.984,0,0,0,.711-.289.952.952,0,0,0,.3-.711V7Z" transform="translate(7.969 7.999)"/></svg>