<svg xmlns="http://www.w3.org/2000/svg" width="18.5" height="20.233" viewBox="0 0 18.5 20.233"><defs><style>.a{fill:#ffd253;stroke:#ffd45d;stroke-width:0.5px;}</style></defs><g transform="translate(0.25 -0.75)"><path class="a" d="M22.063,29.949H20.532V27.714A3.782,3.782,0,0,0,16.7,23.99H12.11a3.782,3.782,0,0,0-3.828,3.724v2.235H6.75V27.714A5.3,5.3,0,0,1,12.11,22.5H16.7a5.3,5.3,0,0,1,5.36,5.214Z" transform="translate(-5.407 -9.216)"/><path class="a" d="M5.172,6.75a.672.672,0,0,0-.672.672v6.045H5.843V7.422A.672.672,0,0,0,5.172,6.75Z" transform="translate(-4.5 -4.063)"/><path class="a" d="M4.5,2.25V3.593H8.25v4.7A5,5,0,0,0,13.5,13a5,5,0,0,0,5.25-4.7v-4.7H22.5V2.25ZM9.75,3.593h7.5V5.608H9.75Zm3.75,8.06A3.57,3.57,0,0,1,9.75,8.295V6.951h7.5V8.295A3.57,3.57,0,0,1,13.5,11.653Z" transform="translate(-4.5 -1.25)"/></g></svg>