<svg xmlns="http://www.w3.org/2000/svg" width="24.16" height="15.738" viewBox="0 0 24.16 15.738"><defs><style>.a{fill:#4ca64a;}</style></defs><path class="a" d="M25.685,15.042A13.576,13.576,0,0,0,13.8,7.53,13.527,13.527,0,0,0,1.93,15.042l-.21.353.2.361A13.576,13.576,0,0,0,13.8,23.268a13.5,13.5,0,0,0,11.885-7.512l.2-.361ZM13.8,21.728A11.95,11.95,0,0,1,3.433,15.4,11.95,11.95,0,0,1,13.8,9.063,12,12,0,0,1,24.16,15.4,11.993,11.993,0,0,1,13.8,21.728Z" transform="translate(-1.72 -7.53)"/><path class="a" d="M16.4,11.17a5.154,5.154,0,1,0,3.66,1.488A5.154,5.154,0,0,0,16.4,11.17Zm0,8.8a3.659,3.659,0,1,1,2.612-1.066A3.651,3.651,0,0,1,16.4,19.974Z" transform="translate(-4.098 -8.435)"/></svg>