<svg xmlns="http://www.w3.org/2000/svg" width="33" height="33" viewBox="0 0 33 33"><defs><style>.a{fill:#fff;stroke:#3c4852;}.b{fill:#3c4852;}.c{stroke:none;}.d{fill:none;}</style></defs><g class="a"><circle class="c" cx="16.5" cy="16.5" r="16.5"/><circle class="d" cx="16.5" cy="16.5" r="16"/></g><path class="b" d="M597.665-19866.5h-5.332v-1.668H587l4.5-13.5a3.239,3.239,0,0,1,1.293-1.832,3.7,3.7,0,0,1,2.127-.668h.165a3.466,3.466,0,0,1,2.082.668,3.827,3.827,0,0,1,1.333,1.832l4.5,13.5h-5.337v1.668ZM595-19885.916a3.476,3.476,0,0,1-2.541-1.043,3.424,3.424,0,0,1-1.043-2.5,3.451,3.451,0,0,1,1.043-2.5A3.457,3.457,0,0,1,595-19893a3.475,3.475,0,0,1,2.541,1.043,3.424,3.424,0,0,1,1.043,2.5,3.4,3.4,0,0,1-1.043,2.5A3.482,3.482,0,0,1,595-19885.916Z" transform="translate(-579.001 19896)"/></svg>