<svg xmlns="http://www.w3.org/2000/svg" width="33" height="33" viewBox="0 0 33 33"><defs><style>.a{fill:#4ca64a;}.b{fill:#fff;}</style></defs><circle class="a" cx="16.5" cy="16.5" r="16.5"/><path class="b" d="M573.751-19866.5h-7.084v-4.334H564v-9.75a3.458,3.458,0,0,1,1.043-2.541,3.469,3.469,0,0,1,2.536-1.043h5.337a3.377,3.377,0,0,1,2.456,1.043,3.471,3.471,0,0,1,1.043,2.541v9.75h-2.666v4.334Zm-3.545-19.416a3.423,3.423,0,0,1-2.5-1.043,3.411,3.411,0,0,1-1.043-2.5,3.424,3.424,0,0,1,1.043-2.5,3.4,3.4,0,0,1,2.5-1.043,3.429,3.429,0,0,1,2.5,1.043,3.424,3.424,0,0,1,1.043,2.5,3.4,3.4,0,0,1-1.043,2.5A3.434,3.434,0,0,1,570.207-19885.916Z" transform="translate(-554.001 19896)"/></svg>