<svg xmlns="http://www.w3.org/2000/svg" width="90" height="90" viewBox="0 0 90 90"><defs><style>.a{fill:#3c7fcc;}.b{fill:#fff;}</style></defs><g transform="translate(-59 -391)"><circle class="a" cx="45" cy="45" r="45" transform="translate(59 391)"/><g transform="translate(76 418)"><g transform="translate(19.622 0)"><path class="b" d="M179.251,85.333a8.585,8.585,0,1,0,8.585,8.585A8.594,8.594,0,0,0,179.251,85.333Zm0,14.717a6.132,6.132,0,1,1,6.132-6.132A6.141,6.141,0,0,1,179.251,100.05Z" transform="translate(-170.666 -85.333)"/></g><g transform="translate(39.245 9.811)"><path class="b" d="M347.466,170.667A6.132,6.132,0,1,0,353.6,176.8,6.141,6.141,0,0,0,347.466,170.667Zm0,9.811a3.679,3.679,0,1,1,3.679-3.679A3.684,3.684,0,0,1,347.466,180.478Z" transform="translate(-341.334 -170.667)"/></g><g transform="translate(5.08 9.811)"><path class="b" d="M50.314,170.667a6.132,6.132,0,1,0,6.132,6.132A6.139,6.139,0,0,0,50.314,170.667Zm0,9.811a3.679,3.679,0,1,1,3.679-3.679A3.684,3.684,0,0,1,50.314,180.478Z" transform="translate(-44.182 -170.667)"/></g><g transform="translate(12.264 19.623)"><path class="b" d="M122.609,256a15.962,15.962,0,0,0-15.943,15.943,1.226,1.226,0,1,0,2.453,0,13.49,13.49,0,0,1,26.981,0,1.226,1.226,0,1,0,2.453,0A15.962,15.962,0,0,0,122.609,256Z" transform="translate(-106.666 -256)"/></g><g transform="translate(39.07 24.528)"><g transform="translate(0 0)"><path class="b" d="M346.12,298.667a11.038,11.038,0,0,0-5.717,1.594,1.227,1.227,0,1,0,1.273,2.1A8.587,8.587,0,0,1,354.7,309.7a1.226,1.226,0,1,0,2.453,0A11.051,11.051,0,0,0,346.12,298.667Z" transform="translate(-339.813 -298.667)"/></g></g><g transform="translate(0 24.528)"><g transform="translate(0 0)"><path class="b" d="M16.753,300.259A11.041,11.041,0,0,0,0,309.7a1.226,1.226,0,1,0,2.453,0,8.588,8.588,0,0,1,13.027-7.349,1.227,1.227,0,1,0,1.273-2.1Z" transform="translate(0 -298.667)"/></g></g></g></g></svg>