<svg xmlns="http://www.w3.org/2000/svg" width="29.7" height="29.7" viewBox="0 0 29.7 29.7"><defs><style>.a{fill:#3c4852;stroke:#3c4852;stroke-width:0.4px;}</style></defs><g transform="translate(0.2 0.2)"><g transform="translate(0 0)"><path class="a" d="M11.6,9.767H1.831A1.834,1.834,0,0,1,0,7.936v-6.1A1.834,1.834,0,0,1,1.831,0H11.6a1.834,1.834,0,0,1,1.831,1.831v6.1A1.834,1.834,0,0,1,11.6,9.767ZM1.831,1.221a.611.611,0,0,0-.61.61v6.1a.611.611,0,0,0,.61.61H11.6a.611.611,0,0,0,.61-.61v-6.1a.611.611,0,0,0-.61-.61Z" transform="translate(0 0)"/></g><g transform="translate(0 12.208)"><path class="a" d="M11.6,27.092H1.831A1.834,1.834,0,0,1,0,25.261V11.831A1.834,1.834,0,0,1,1.831,10H11.6a1.834,1.834,0,0,1,1.831,1.831V25.261A1.834,1.834,0,0,1,11.6,27.092ZM1.831,11.221a.611.611,0,0,0-.61.61V25.261a.611.611,0,0,0,.61.61H11.6a.611.611,0,0,0,.61-.61V11.831a.611.611,0,0,0-.61-.61Z" transform="translate(0 -10)"/></g><g transform="translate(15.871 19.534)"><path class="a" d="M24.6,25.767H14.831A1.834,1.834,0,0,1,13,23.936v-6.1A1.834,1.834,0,0,1,14.831,16H24.6a1.834,1.834,0,0,1,1.831,1.831v6.1A1.834,1.834,0,0,1,24.6,25.767Zm-9.767-8.546a.611.611,0,0,0-.61.61v6.1a.611.611,0,0,0,.61.61H24.6a.611.611,0,0,0,.61-.61v-6.1a.611.611,0,0,0-.61-.61Z" transform="translate(-13 -16)"/></g><g transform="translate(15.871 0)"><path class="a" d="M24.6,17.092H14.831A1.834,1.834,0,0,1,13,15.261V1.831A1.834,1.834,0,0,1,14.831,0H24.6a1.834,1.834,0,0,1,1.831,1.831V15.261A1.834,1.834,0,0,1,24.6,17.092ZM14.831,1.221a.611.611,0,0,0-.61.61V15.261a.611.611,0,0,0,.61.61H24.6a.611.611,0,0,0,.61-.61V1.831a.611.611,0,0,0-.61-.61Z" transform="translate(-13 0)"/></g></g></svg>