<svg xmlns="http://www.w3.org/2000/svg" width="74.149" height="63.06" viewBox="0 0 74.149 63.06"><defs><style>.a{fill:#fdbc4b;}.b{fill:#fff9e9;}.c{fill:#fff4d6;}.d{fill:#fae19e;}.e{fill:#54b1ff;}.f{fill:#ef7572;}.g{fill:#e86a69;}.h{fill:#e95454;}.i{fill:#ffabe7;}.j{fill:#eb8a2f;}</style></defs><g transform="translate(0 -34.905)"><g transform="translate(0 34.905)"><path class="a" d="M0,90.37V36.381A1.484,1.484,0,0,1,1.492,34.9H72.657a1.484,1.484,0,0,1,1.492,1.476V90.37a1.484,1.484,0,0,1-1.492,1.476H1.492A1.484,1.484,0,0,1,0,90.37Z" transform="translate(0 -34.905)"/><path class="b" d="M30.679,113.416H95.856V65.511H30.679Z" transform="translate(-26.193 -60.993)"/><path class="c" d="M426.321,65.511h5.849v47.905h-5.849Z" transform="translate(-362.507 -60.993)"/><g transform="translate(12.767 12.678)"><path class="d" d="M83.36,123.005h37.806a1.107,1.107,0,0,0,0-2.214H83.36a1.107,1.107,0,0,0,0,2.214Z" transform="translate(-82.263 -120.791)"/><path class="d" d="M129.782,166.408H83.36a1.107,1.107,0,0,0,0,2.214h46.422a1.107,1.107,0,0,0,0-2.214Z" transform="translate(-82.263 -159.674)"/><path class="d" d="M109.735,212.026H83.36a1.107,1.107,0,0,0,0,2.214h26.375a1.107,1.107,0,0,0,0-2.214Z" transform="translate(-82.263 -198.558)"/></g><path class="e" d="M94.291,263.494l-2.579.006h-.828a.95.95,0,0,1-.618-.1.927.927,0,0,1-.314-.611c-.1-.519-.841-.453-.977,0-.06.2-.364.775-.629.728-.141-.025-.2-.244-.254-.357a4.387,4.387,0,0,1-.238-.689c-.267-.991-.32-2.025-.487-3.035-.1-.585-.98-.42-.995.136a15.776,15.776,0,0,1-.956,5.176c-.232.616.747.882.977.272a14.561,14.561,0,0,0,.58-1.96,5.215,5.215,0,0,0,.29.711,1.2,1.2,0,0,0,1.544.677,1.73,1.73,0,0,0,.619-.457c.025.029.051.058.077.086a2.243,2.243,0,0,0,1.78.446l3.008-.006A.512.512,0,0,0,94.291,263.494Z" transform="translate(-55.028 -222.313)"/></g><path class="f" d="M346.676,352.137l-3.144-1.476-3.144,1.476V333.095h6.288Z" transform="translate(-289.509 -254.172)"/><g transform="translate(45.345 64.304)"><path class="g" d="M309.065,252.366c-1.109,0-1.836-1.906-2.8-2.311-1-.419-2.843.393-3.6-.369s.05-2.626-.365-3.637c-.4-.976-2.285-1.71-2.285-2.832s1.885-1.857,2.285-2.832c.415-1.011-.389-2.875.365-3.637s2.6.05,3.6-.369c.965-.4,1.691-2.311,2.8-2.311s1.836,1.906,2.8,2.311c1,.419,2.843-.393,3.6.369s-.05,2.626.365,3.637c.4.976,2.285,1.71,2.285,2.832s-1.885,1.857-2.285,2.832c-.415,1.011.389,2.875-.365,3.637s-2.6-.051-3.6.369C310.9,250.46,310.174,252.366,309.065,252.366Z" transform="translate(-300.018 -234.067)"/></g><path class="h" d="M351.573,240.384c-.415-1.011.389-2.875-.365-3.637s-2.6.05-3.6-.369c-.965-.4-1.691-2.311-2.8-2.311s-1.836,1.906-2.8,2.311c-.04.017-.082.031-.124.044,1.022.313,2.749-.407,3.473.325.754.762-.05,2.626.365,3.637.4.976,2.285,1.71,2.285,2.832s-1.885,1.857-2.285,2.832c-.415,1.011.389,2.875-.365,3.637-.724.732-2.451.013-3.473.325.042.013.084.027.124.044.965.4,1.691,2.311,2.8,2.311s1.836-1.906,2.8-2.311c1-.419,2.843.393,3.6-.369s-.05-2.626.365-3.637c.4-.976,2.285-1.71,2.285-2.832S351.974,241.36,351.573,240.384Z" transform="translate(-290.419 -169.763)"/><ellipse class="i" cx="3.187" cy="3.217" rx="3.187" ry="3.217" transform="translate(50.837 70.237)"/><path class="j" d="M7.107,2.863l.072,1.278a.608.608,0,0,1-.328.518,2.764,2.764,0,0,1-.941.378,5.68,5.68,0,0,1-1.294.14,5.68,5.68,0,0,1-1.294-.14,2.764,2.764,0,0,1-.941-.378.608.608,0,0,1-.328-.518l.072-1.278,2.3.732a.669.669,0,0,0,.385,0ZM9.23,1.553a.123.123,0,0,1-.088.125L4.655,3.1a.2.2,0,0,1-.08,0L1.963,2.269a.988.988,0,0,0-.284.451,2.6,2.6,0,0,0-.136.722.477.477,0,0,1,.252.441.49.49,0,0,1-.232.433l.232,1.751a.12.12,0,0,1-.032.1.118.118,0,0,1-.1.045H.9a.118.118,0,0,1-.1-.045.12.12,0,0,1-.032-.1L1,4.315a.518.518,0,0,1,.028-.882A2.526,2.526,0,0,1,1.422,2.1L.088,1.678a.133.133,0,0,1,0-.251L4.575,0a.2.2,0,0,1,.08,0L9.142,1.428a.123.123,0,0,1,.088.125Z" transform="translate(13.532 71.661)"/></g></svg>