<svg xmlns="http://www.w3.org/2000/svg" width="21.856" height="18.585" viewBox="0 0 21.856 18.585"><defs><style>.a{fill:none;stroke:#3c4852;stroke-width:2px;}</style></defs><path class="a" d="M21.925,10.321,14.633,3.5a.373.373,0,0,0-.289-.124c-.227.01-.517.171-.517.413V7.21a.221.221,0,0,1-.186.212C6.389,8.533,3.335,13.96,2.255,19.593c-.041.222.258.429.4.253C5.3,16.513,8.519,14.337,13.609,14.3a.256.256,0,0,1,.217.248V17.9a.444.444,0,0,0,.749.274l7.344-6.941A.571.571,0,0,0,22.1,10.8.692.692,0,0,0,21.925,10.321Z" transform="translate(-1.245 -2.375)"/></svg>