<svg xmlns="http://www.w3.org/2000/svg" width="16.505" height="16.508" viewBox="0 0 16.505 16.508"><defs><style>.a{fill:#3c4852;}</style></defs><path class="a" d="M15.481,18.758a6.943,6.943,0,0,1-3.243-1.105,21.08,21.08,0,0,1-5.093-3.809A19.34,19.34,0,0,1,3.322,8.752C1.965,6.283,2.2,4.989,2.454,4.436A3.446,3.446,0,0,1,3.8,2.987a6.5,6.5,0,0,1,1.055-.56l.1-.045a.985.985,0,0,1,.809-.074,2.367,2.367,0,0,1,.769.59A12.765,12.765,0,0,1,8.461,5.751a2.84,2.84,0,0,1,.377,1.169,1.848,1.848,0,0,1-.47,1.1c-.048.066-.1.129-.143.19-.28.368-.342.475-.3.665a6.988,6.988,0,0,0,1.7,2.524,6.7,6.7,0,0,0,2.5,1.661c.2.042.307-.021.687-.312.055-.041.111-.085.169-.128a1.856,1.856,0,0,1,1.115-.5h0a2.672,2.672,0,0,1,1.174.412,14.065,14.065,0,0,1,2.842,1.908,2.377,2.377,0,0,1,.592.767.993.993,0,0,1-.074.811c-.014.03-.029.064-.045.1a6.5,6.5,0,0,1-.563,1.053,3.443,3.443,0,0,1-1.451,1.348,2.484,2.484,0,0,1-1.09.239Z" transform="translate(-2.257 -2.25)"/></svg>