<svg xmlns="http://www.w3.org/2000/svg" width="90" height="90" viewBox="0 0 90 90"><defs><style>.a{fill:#2aae93;}.b{fill:#fff;}</style></defs><g transform="translate(-58 -151)"><circle class="a" cx="45" cy="45" r="45" transform="translate(58 151)"/><g transform="translate(73 177)"><g transform="translate(0 0)"><path class="b" d="M59.168,130a2.622,2.622,0,0,0-.912-.921c-.04-.023-.263-.12-.306-.137L31.491,117.662a1.133,1.133,0,0,0-.211-.066,4.072,4.072,0,0,0-2.917,0,.91.91,0,0,0-.214.066L1.71,128.929c-.065.026-.281.123-.34.157a2.565,2.565,0,0,0-.882.884c-.03.046-.119.2-.144.254a3.1,3.1,0,0,0-.343,1.4,3.374,3.374,0,0,0,.46,1.616,2.635,2.635,0,0,0,.919.932c.04.023.263.12.306.137l10.74,4.578v8.464c0,4.692,8.749,7.149,17.394,7.149s17.394-2.456,17.394-7.149v-8.467l4.97-2.119v10.24l-2.358,5.427a1.539,1.539,0,0,0,.557,1.919,1.176,1.176,0,0,0,1.667-.641l1.374-3.16,1.374,3.16a1.236,1.236,0,0,0,1.113.789,1.1,1.1,0,0,0,.552-.149,1.536,1.536,0,0,0,.557-1.919l-2.351-5.41V135.914a1.24,1.24,0,0,0-.035-.192l3.292-1.4c.065-.026.281-.123.34-.157a2.557,2.557,0,0,0,.887-.892l-1-.852,1.138.609a3.1,3.1,0,0,0,.343-1.4h0A3.362,3.362,0,0,0,59.168,130ZM29.819,151.642c-9.249,0-14.909-2.777-14.909-4.289s5.661-4.289,14.909-4.289,14.909,2.777,14.909,4.289S39.068,151.642,29.819,151.642Zm14.909-8.127c-6.4-4.261-23.42-4.261-29.819,0v-7.6c0-1.513,5.661-4.289,14.909-4.289s14.909,2.777,14.909,4.289ZM47.2,135.84c-.191-9.282-34.58-9.282-34.771,0l-9.885-4.221,26.29-11.2a1.617,1.617,0,0,0,.157-.051,1.962,1.962,0,0,1,1.643,0,.964.964,0,0,0,.154.049l26.293,11.215Z" transform="translate(0 -117.326)"/></g></g></g></svg>