<svg xmlns="http://www.w3.org/2000/svg" width="36.269" height="23.793" viewBox="0 0 36.269 23.793"><defs><style>.a{fill:#3c4852;stroke:#3c4852;stroke-width:0.4px;}</style></defs><g transform="translate(0.2 0.2)"><g transform="translate(12.476 0)"><path class="a" d="M176.124,85.333a5.458,5.458,0,1,0,5.458,5.458A5.464,5.464,0,0,0,176.124,85.333Zm0,9.357a3.9,3.9,0,1,1,3.9-3.9A3.9,3.9,0,0,1,176.124,94.69Z" transform="translate(-170.666 -85.333)"/></g><g transform="translate(24.952 6.238)"><path class="a" d="M345.233,170.667a3.9,3.9,0,1,0,3.9,3.9A3.9,3.9,0,0,0,345.233,170.667Zm0,6.238a2.339,2.339,0,1,1,2.339-2.339A2.342,2.342,0,0,1,345.233,176.905Z" transform="translate(-341.334 -170.667)"/></g><g transform="translate(3.23 6.238)"><path class="a" d="M48.081,170.667a3.9,3.9,0,1,0,3.9,3.9A3.9,3.9,0,0,0,48.081,170.667Zm0,6.238a2.339,2.339,0,1,1,2.339-2.339A2.342,2.342,0,0,1,48.081,176.905Z" transform="translate(-44.182 -170.667)"/></g><g transform="translate(7.798 12.476)"><path class="a" d="M116.8,256a10.149,10.149,0,0,0-10.137,10.137.78.78,0,0,0,1.56,0,8.577,8.577,0,1,1,17.155,0,.78.78,0,0,0,1.56,0A10.149,10.149,0,0,0,116.8,256Z" transform="translate(-106.666 -256)"/></g><g transform="translate(24.841 15.595)"><g transform="translate(0 0)"><path class="a" d="M343.823,298.667a7.018,7.018,0,0,0-3.635,1.014.78.78,0,0,0,.809,1.333,5.459,5.459,0,0,1,8.284,4.671.78.78,0,1,0,1.56,0A7.026,7.026,0,0,0,343.823,298.667Z" transform="translate(-339.813 -298.667)"/></g></g><g transform="translate(0 15.595)"><g transform="translate(0 0)"><path class="a" d="M10.652,299.679A7.02,7.02,0,0,0,0,305.685a.78.78,0,1,0,1.56,0,5.46,5.46,0,0,1,8.283-4.672.78.78,0,1,0,.809-1.333Z" transform="translate(0 -298.667)"/></g></g></g></svg>